<?xml version="1.0" encoding="utf-8"?>
<!-- Generator: Adobe Illustrator 23.0.0, SVG Export Plug-In . SVG Version: 6.00 Build 0)  -->
<svg version="1.1" id="Layer_1" xmlns="http://www.w3.org/2000/svg" xmlns:xlink="http://www.w3.org/1999/xlink" x="0px" y="0px"
	 viewBox="0 0 559.9 174.2" style="enable-background:new 0 0 559.9 174.2;" xml:space="preserve">
<style type="text/css">
	.st0{fill:#FFFFFF;}
</style>
<g>
	<g>
		<path class="st0" d="M195.9,45.3V10.6h5.3v17.9h0.1l14.2-17.9h6.3l-11.1,13.7l12.3,21h-6.2l-9.5-16.9l-6.1,6.4v10.5H195.9z"/>
		<path class="st0" d="M226,33.5V10.6h5.3v22.3c0,2.4,0.7,4.2,2,5.5s3,1.9,5,1.9s3.7-0.6,5-1.9c1.4-1.3,2-3.1,2-5.5V10.6h5.3v22.9
			c0,3.6-1.2,6.5-3.6,8.7s-5.3,3.3-8.7,3.3c-3.4,0-6.4-1.1-8.7-3.3C227.2,40,226,37.2,226,33.5z"/>
		<path class="st0" d="M263.1,45.3v-30h-9.5v-4.7h24.2v4.7h-9.5v30H263.1z"/>
		<path class="st0" d="M277.9,45.2l12.6-34.7h4.3l12.6,34.7H302l-2.7-7.8h-13.1l-2.8,7.8H277.9z M287.8,32.8h10
			c-0.7-2.1-1.3-3.8-1.7-5c-0.4-1.2-0.8-2.3-1.1-3.2s-0.6-1.9-0.9-2.9c-0.3-1-0.7-2.3-1.3-3.9c-0.5,1.7-1,3.1-1.3,4.1s-0.6,2-1,3
			s-0.7,2-1.1,3.2C289,29.2,288.5,30.8,287.8,32.8z"/>
		<path class="st0" d="M311.9,45.3V10.6h5.3v34.6H311.9z"/>
		<path class="st0" d="M321.4,40.8l3.5-4c1.3,1,2.8,1.9,4.5,2.5c1.7,0.6,3.5,1,5.3,1c2.1,0,3.8-0.4,5-1.3s1.8-2,1.8-3.5
			c0-2.7-1.5-4.3-4.5-4.7c-0.8-0.1-1.5-0.2-2.2-0.3s-1.5-0.2-2.4-0.3c-3-0.4-5.3-1.5-6.9-3.3c-1.6-1.8-2.4-3.9-2.4-6.5
			c0-3,1-5.4,3-7.3s4.8-2.9,8.3-2.9c2.1,0,4.1,0.3,6,1s3.6,1.5,5.2,2.6l-2.9,4.3c-1.3-0.8-2.6-1.4-4.1-1.9c-1.5-0.5-3-0.7-4.5-0.7
			c-1.6,0-3,0.4-4.1,1.2c-1.1,0.8-1.7,2.1-1.7,3.7c0,1,0.4,1.9,1.1,2.8s2,1.4,3.8,1.7c0.5,0.1,1,0.2,1.7,0.3s1.4,0.2,2.2,0.3
			c3.2,0.4,5.6,1.6,7.2,3.5c1.5,2,2.3,4.1,2.3,6.5c0,3.2-1.1,5.7-3.3,7.4c-2.2,1.8-5.2,2.6-8.9,2.6C329.5,45.5,325,44,321.4,40.8z"
			/>
		<path class="st0" d="M352.4,45.3V10.6h5.3v34.6H352.4z"/>
		<path class="st0" d="M195.9,103.7V69h5.3v34.6H195.9z"/>
		<path class="st0" d="M208.5,103.7V69h5l15.7,24.6h0.1V69h5.3v34.6h-5L213.9,79h-0.1v24.6H208.5z"/>
		<path class="st0" d="M247.6,103.7v-30h-9.5V69h24.2v4.7h-9.5v30H247.6z"/>
		<path class="st0" d="M266.1,103.7V69h22.1v5h-16.9v9.9h14.4v4.7h-14.4v10.2h16.9v4.9L266.1,103.7L266.1,103.7z"/>
		<path class="st0" d="M293.1,103.7V69h13.5c3,0,5.3,0.8,7,2.3c1,0.8,1.8,1.9,2.5,3.2c0.7,1.3,1,2.7,1,4.2c0,2.2-0.6,4.2-1.8,5.9
			c-1.2,1.7-2.8,2.9-4.9,3.7l8,15.4h-6.2l-7.1-14.8h-6.7v14.8H293.1z M298.4,73.7v10.5h7.9c2,0,3.4-0.6,4.4-1.6s1.5-2.4,1.5-3.8
			c0-1.8-0.6-3.1-1.8-3.9c-1-0.7-2.3-1.1-3.8-1.1L298.4,73.7L298.4,73.7z"/>
		<path class="st0" d="M322.8,103.7V69h5l15.7,24.6h0.1V69h5.3v34.6h-5L328.2,79h-0.1v24.6H322.8z"/>
		<path class="st0" d="M352.5,103.6L365.1,69h4.3l12.6,34.7h-5.5l-2.7-7.8h-13.1l-2.8,7.8H352.5z M362.3,91.2h10
			c-0.7-2.1-1.3-3.8-1.7-5c-0.4-1.2-0.8-2.3-1.1-3.2s-0.6-1.9-0.9-2.8c-0.3-1-0.7-2.3-1.3-3.9c-0.5,1.7-1,3.1-1.3,4.1s-0.6,2-1,3
			s-0.7,2-1.1,3.2C363.5,87.6,363,89.2,362.3,91.2z"/>
		<path class="st0" d="M392.3,103.7v-30h-9.5V69H407v4.7h-9.5v30H392.3z"/>
		<path class="st0" d="M410.8,103.7V69h5.3v34.6H410.8z"/>
		<path class="st0" d="M422.1,86.4c0-4.2,0.1-6.8,0.3-8.1c0.2-1.2,0.6-2.3,1.2-3.3c0.8-1.5,2.1-2.9,4-4.3c1.9-1.3,4.1-2,6.9-2
			c2.7,0,5,0.7,6.8,2c1.9,1.3,3.2,2.8,4,4.3c0.5,1,0.9,2.1,1.2,3.3s0.3,3.9,0.3,8.1s-0.1,6.8-0.3,8.1c-0.2,1.2-0.6,2.3-1.2,3.3
			c-0.8,1.5-2.2,2.9-4,4.2s-4.1,2-6.8,2c-2.7,0-5-0.7-6.9-2c-1.9-1.3-3.2-2.7-4-4.2c-0.6-1-1-2.1-1.2-3.3S422.1,90.5,422.1,86.4z
			 M427.4,86.4c0,3.6,0.1,5.9,0.4,6.9c0.3,1.1,0.7,2,1.4,2.9c0.5,0.7,1.2,1.3,2.1,1.8c0.9,0.5,2,0.8,3.2,0.8s2.3-0.3,3.2-0.8
			s1.6-1.1,2.1-1.8c0.7-0.9,1.1-1.8,1.4-2.9c0.3-1.1,0.4-3.4,0.4-6.9c0-3.6-0.1-5.9-0.4-6.9s-0.7-2-1.4-2.9
			c-0.5-0.7-1.2-1.3-2.1-1.8c-0.9-0.5-2-0.8-3.2-0.8s-2.3,0.3-3.2,0.8s-1.6,1.1-2.1,1.8c-0.7,0.9-1.1,1.9-1.4,2.9
			S427.4,82.8,427.4,86.4z"/>
		<path class="st0" d="M453,103.7V69h5l15.7,24.6h0.1V69h5.3v34.6h-5L458.4,79h-0.1v24.6H453z"/>
		<path class="st0" d="M482.6,103.6L495.3,69h4.3l12.6,34.7h-5.5l-2.7-7.8h-13.1l-2.8,7.8H482.6z M492.5,91.2h10
			c-0.7-2.1-1.3-3.8-1.7-5c-0.4-1.2-0.8-2.3-1.1-3.2s-0.6-1.9-0.9-2.8c-0.3-1-0.7-2.3-1.3-3.9c-0.5,1.7-1,3.1-1.3,4.1s-0.6,2-1,3
			s-0.7,2-1.1,3.2C493.7,87.6,493.2,89.2,492.5,91.2z"/>
		<path class="st0" d="M516.6,103.7V69h5.3v29.7h16.9v4.9H516.6z"/>
		<path class="st0" d="M195.3,150.4v-22.9h5.3v22.3c0,2.4,0.7,4.2,2,5.5s3,1.9,5,1.9s3.7-0.6,5-1.9c1.4-1.3,2-3.1,2-5.5v-22.3h5.3
			v22.9c0,3.6-1.2,6.5-3.6,8.7s-5.3,3.3-8.7,3.3c-3.4,0-6.4-1.1-8.7-3.3C196.5,156.9,195.3,154,195.3,150.4z"/>
		<path class="st0" d="M226.6,162.1v-34.6h5l15.7,24.6h0.1v-24.6h5.3v34.6h-5L232,137.4h-0.1v24.6L226.6,162.1L226.6,162.1z"/>
		<path class="st0" d="M259.9,162.1v-34.6h5.3v34.6H259.9z"/>
		<path class="st0" d="M280.3,162.1l-11.4-34.6h5.5l7.9,26.4h0.1l7.9-26.4h5.5l-11.4,34.6H280.3z"/>
		<path class="st0" d="M299.5,162.1v-34.6h22.1v5h-16.9v9.9h14.4v4.7h-14.4v10.2h16.9v4.9L299.5,162.1L299.5,162.1z"/>
		<path class="st0" d="M326.5,162.1v-34.6H340c3,0,5.3,0.8,7,2.3c1,0.8,1.8,1.9,2.5,3.2c0.7,1.3,1,2.7,1,4.2c0,2.2-0.6,4.2-1.8,5.9
			c-1.2,1.7-2.8,2.9-4.9,3.6l8,15.4h-6.2l-7.1-14.8h-6.7v14.8L326.5,162.1L326.5,162.1z M331.8,132.1v10.5h7.9c2,0,3.4-0.6,4.4-1.6
			s1.5-2.4,1.5-3.9c0-1.8-0.6-3.1-1.8-3.9c-1-0.7-2.3-1.1-3.8-1.1L331.8,132.1L331.8,132.1z"/>
		<path class="st0" d="M353.2,157.6l3.5-3.9c1.3,1.1,2.8,1.9,4.5,2.5c1.7,0.6,3.5,0.9,5.3,0.9c2.1,0,3.8-0.4,5-1.3s1.8-2.1,1.8-3.5
			c0-2.7-1.5-4.3-4.5-4.7c-0.8-0.1-1.5-0.2-2.2-0.3c-0.7-0.1-1.5-0.2-2.4-0.3c-3-0.4-5.3-1.5-6.9-3.3s-2.4-3.9-2.4-6.4
			c0-2.9,1-5.4,3-7.3c2-1.9,4.8-2.8,8.3-2.8c2.1,0,4.1,0.3,6,1c1.9,0.7,3.6,1.5,5.2,2.6l-2.9,4.3c-1.3-0.8-2.6-1.4-4.1-1.9
			s-3-0.7-4.5-0.7c-1.6,0-3,0.4-4.1,1.2c-1.1,0.8-1.7,2.1-1.7,3.7c0,1,0.4,1.9,1.1,2.8s2,1.4,3.8,1.7c0.5,0.1,1,0.2,1.7,0.3
			s1.4,0.2,2.2,0.3c3.2,0.4,5.6,1.6,7.2,3.5c1.5,1.9,2.3,4.1,2.3,6.5c0,3.2-1.1,5.7-3.3,7.4c-2.2,1.8-5.2,2.6-8.9,2.6
			C361.2,162.4,356.8,160.8,353.2,157.6z"/>
		<path class="st0" d="M384.1,162.1v-34.6h5.3v34.6H384.1z"/>
		<path class="st0" d="M402.6,162.1v-30h-9.5v-4.7h24.2v4.7h-9.5v30H402.6z"/>
		<path class="st0" d="M427,162.1v-14.2l-10.4-20.4h5.5l7.4,15.4l7.3-15.4h5.5L432,147.8v14.2L427,162.1L427,162.1z"/>
	</g>
</g>
<circle class="st0" cx="38.2" cy="25.7" r="16.5"/>
<circle class="st0" cx="38.2" cy="147.6" r="16.5"/>
<circle class="st0" cx="38.2" cy="86.7" r="16.5"/>
<path class="st0" d="M108,162h47.7l-57.2-57.2c-6.6-6.6-17.3-6.6-23.8,0c-6.6,6.6-6.6,17.3,0,23.8L108,162z"/>
<path class="st0" d="M108,9.8h47.7L98.4,67c-6.6,6.6-17.3,6.6-23.8,0c-6.6-6.6-6.6-17.3,0-23.8L108,9.8z"/>
</svg>
